<svg xmlns="http://www.w3.org/2000/svg" width="880" height="540" viewBox="0 0 880 540" font-family="Segoe UI,Arial,sans-serif">
<rect width="880" height="540" fill="white"/>
<text x="440.0" y="32" text-anchor="middle" font-size="19" font-weight="bold">Loss tolerated before real (SACK) TCP wins — by FEC geometry</text>
<line x1="80" y1="460.0" x2="840" y2="460.0" stroke="#eee"/>
<text x="72" y="464.0" text-anchor="end" font-size="11" fill="#555">0%</text>
<line x1="80" y1="417.6" x2="840" y2="417.6" stroke="#eee"/>
<text x="72" y="421.6" text-anchor="end" font-size="11" fill="#555">1%</text>
<line x1="80" y1="375.3" x2="840" y2="375.3" stroke="#eee"/>
<text x="72" y="379.3" text-anchor="end" font-size="11" fill="#555">2%</text>
<line x1="80" y1="332.9" x2="840" y2="332.9" stroke="#eee"/>
<text x="72" y="336.9" text-anchor="end" font-size="11" fill="#555">3%</text>
<line x1="80" y1="290.5" x2="840" y2="290.5" stroke="#eee"/>
<text x="72" y="294.5" text-anchor="end" font-size="11" fill="#555">4%</text>
<line x1="80" y1="248.1" x2="840" y2="248.1" stroke="#eee"/>
<text x="72" y="252.1" text-anchor="end" font-size="11" fill="#555">5%</text>
<line x1="80" y1="205.8" x2="840" y2="205.8" stroke="#eee"/>
<text x="72" y="209.8" text-anchor="end" font-size="11" fill="#555">6%</text>
<line x1="80" y1="163.4" x2="840" y2="163.4" stroke="#eee"/>
<text x="72" y="167.4" text-anchor="end" font-size="11" fill="#555">7%</text>
<line x1="80" y1="121.0" x2="840" y2="121.0" stroke="#eee"/>
<text x="72" y="125.0" text-anchor="end" font-size="11" fill="#555">8%</text>
<line x1="80" y1="78.6" x2="840" y2="78.6" stroke="#eee"/>
<text x="72" y="82.6" text-anchor="end" font-size="11" fill="#555">9%</text>
<text x="80.0" y="480.0" text-anchor="middle" font-size="11" fill="#555">0%</text>
<text x="215.7" y="480.0" text-anchor="middle" font-size="11" fill="#555">10%</text>
<text x="351.4" y="480.0" text-anchor="middle" font-size="11" fill="#555">20%</text>
<text x="487.1" y="480.0" text-anchor="middle" font-size="11" fill="#555">30%</text>
<text x="622.9" y="480.0" text-anchor="middle" font-size="11" fill="#555">40%</text>
<text x="758.6" y="480.0" text-anchor="middle" font-size="11" fill="#555">50%</text>
<line x1="80" y1="60" x2="80" y2="460" stroke="#333"/>
<line x1="80" y1="460" x2="840" y2="460" stroke="#333"/>
<text x="460.0" y="510" text-anchor="middle" font-size="14">bandwidth overhead  r/k  (%)</text>
<text x="22" y="260.0" text-anchor="middle" font-size="14" transform="rotate(-90 22 260.0)">max loss FEC still beats SACK-TCP (%)</text>
<circle cx="164.8" cy="460.0" r="6" fill="#2ca02c" stroke="#176117"/>
<text x="174.8" y="464.0" font-size="12" fill="#222">k=16,r=1</text>
<circle cx="164.8" cy="438.8" r="6" fill="#2ca02c" stroke="#176117"/>
<text x="174.8" y="442.8" font-size="12" fill="#222">k=32,r=2</text>
<circle cx="249.6" cy="460.0" r="6" fill="#2ca02c" stroke="#176117"/>
<text x="259.6" y="464.0" font-size="12" fill="#222">k=8,r=1</text>
<circle cx="249.6" cy="417.6" r="6" fill="#2ca02c" stroke="#176117"/>
<text x="259.6" y="421.6" font-size="12" fill="#222">k=16,r=2</text>
<circle cx="249.6" cy="332.9" r="6" fill="#2ca02c" stroke="#176117"/>
<text x="259.6" y="336.9" font-size="12" fill="#222">k=32,r=4</text>
<circle cx="334.5" cy="332.9" r="6" fill="#2ca02c" stroke="#176117"/>
<text x="344.5" y="336.9" font-size="12" fill="#222">k=16,r=3</text>
<circle cx="419.3" cy="375.3" r="6" fill="#2ca02c" stroke="#176117"/>
<text x="429.3" y="379.3" font-size="12" fill="#222">k=8,r=2</text>
<circle cx="419.3" cy="248.1" r="6" fill="#2ca02c" stroke="#176117"/>
<text x="429.3" y="252.1" font-size="12" fill="#222">k=16,r=4</text>
<circle cx="588.9" cy="248.1" r="6" fill="#2ca02c" stroke="#176117"/>
<text x="598.9" y="252.1" font-size="12" fill="#222">k=8,r=3</text>
<circle cx="758.6" cy="332.9" r="6" fill="#2ca02c" stroke="#176117"/>
<text x="768.6" y="336.9" font-size="12" fill="#222">k=4,r=2</text>
<circle cx="758.6" cy="121.0" r="6" fill="#2ca02c" stroke="#176117"/>
<text x="768.6" y="125.0" font-size="12" fill="#222">k=8,r=4</text>
</svg>