<svg xmlns="http://www.w3.org/2000/svg" width="880" height="540" viewBox="0 0 880 540" font-family="Segoe UI,Arial,sans-serif">
<rect width="880" height="540" fill="white"/>
<text x="440.0" y="32" text-anchor="middle" font-size="20" font-weight="bold">Completion time vs loss: FEC recovers locally, TCP waits for RTO</text>
<line x1="90" y1="460.0" x2="670" y2="460.0" stroke="#e0e0e0" stroke-width="1"/>
<text x="80" y="464.0" text-anchor="end" font-size="12" fill="#444">100ms</text>
<line x1="90" y1="326.7" x2="670" y2="326.7" stroke="#e0e0e0" stroke-width="1"/>
<text x="80" y="330.7" text-anchor="end" font-size="12" fill="#444">1s</text>
<line x1="90" y1="193.3" x2="670" y2="193.3" stroke="#e0e0e0" stroke-width="1"/>
<text x="80" y="197.3" text-anchor="end" font-size="12" fill="#444">10s</text>
<line x1="90" y1="60.0" x2="670" y2="60.0" stroke="#e0e0e0" stroke-width="1"/>
<text x="80" y="64.0" text-anchor="end" font-size="12" fill="#444">100s</text>
<line x1="90.0" y1="460" x2="90.0" y2="465" stroke="#444"/>
<text x="90.0" y="482.0" text-anchor="middle" font-size="12" fill="#444">0</text>
<line x1="142.7" y1="460" x2="142.7" y2="465" stroke="#444"/>
<text x="142.7" y="482.0" text-anchor="middle" font-size="12" fill="#444">0.25</text>
<line x1="195.5" y1="460" x2="195.5" y2="465" stroke="#444"/>
<text x="195.5" y="482.0" text-anchor="middle" font-size="12" fill="#444">0.5</text>
<line x1="248.2" y1="460" x2="248.2" y2="465" stroke="#444"/>
<text x="248.2" y="482.0" text-anchor="middle" font-size="12" fill="#444">1</text>
<line x1="300.9" y1="460" x2="300.9" y2="465" stroke="#444"/>
<text x="300.9" y="482.0" text-anchor="middle" font-size="12" fill="#444">1.5</text>
<line x1="353.6" y1="460" x2="353.6" y2="465" stroke="#444"/>
<text x="353.6" y="482.0" text-anchor="middle" font-size="12" fill="#444">2</text>
<line x1="406.4" y1="460" x2="406.4" y2="465" stroke="#444"/>
<text x="406.4" y="482.0" text-anchor="middle" font-size="12" fill="#444">3</text>
<line x1="459.1" y1="460" x2="459.1" y2="465" stroke="#444"/>
<text x="459.1" y="482.0" text-anchor="middle" font-size="12" fill="#444">4</text>
<line x1="511.8" y1="460" x2="511.8" y2="465" stroke="#444"/>
<text x="511.8" y="482.0" text-anchor="middle" font-size="12" fill="#444">5</text>
<line x1="564.5" y1="460" x2="564.5" y2="465" stroke="#444"/>
<text x="564.5" y="482.0" text-anchor="middle" font-size="12" fill="#444">6</text>
<line x1="617.3" y1="460" x2="617.3" y2="465" stroke="#444"/>
<text x="617.3" y="482.0" text-anchor="middle" font-size="12" fill="#444">8</text>
<line x1="670.0" y1="460" x2="670.0" y2="465" stroke="#444"/>
<text x="670.0" y="482.0" text-anchor="middle" font-size="12" fill="#444">10</text>
<line x1="90" y1="60" x2="90" y2="460" stroke="#333" stroke-width="1.5"/>
<line x1="90" y1="460" x2="670" y2="460" stroke="#333" stroke-width="1.5"/>
<text x="380.0" y="518" text-anchor="middle" font-size="14">Packet loss rate  (%)</text>
<text x="28" y="260.0" text-anchor="middle" font-size="14" transform="rotate(-90 28 260.0)">Transfer completion time  (log scale)</text>
<polyline points="90.0,404.7 142.7,303.2 195.5,265.0 248.2,228.2 300.9,204.2 353.6,187.3 406.4,162.6 459.1,145.7 511.8,132.4 564.5,120.8 617.3,100.4 670.0,84.9" fill="none" stroke="#d62728" stroke-width="2.5"/>
<circle cx="90.0" cy="404.7" r="3.5" fill="#d62728"/>
<circle cx="142.7" cy="303.2" r="3.5" fill="#d62728"/>
<circle cx="195.5" cy="265.0" r="3.5" fill="#d62728"/>
<circle cx="248.2" cy="228.2" r="3.5" fill="#d62728"/>
<circle cx="300.9" cy="204.2" r="3.5" fill="#d62728"/>
<circle cx="353.6" cy="187.3" r="3.5" fill="#d62728"/>
<circle cx="406.4" cy="162.6" r="3.5" fill="#d62728"/>
<circle cx="459.1" cy="145.7" r="3.5" fill="#d62728"/>
<circle cx="511.8" cy="132.4" r="3.5" fill="#d62728"/>
<circle cx="564.5" cy="120.8" r="3.5" fill="#d62728"/>
<circle cx="617.3" cy="100.4" r="3.5" fill="#d62728"/>
<circle cx="670.0" cy="84.9" r="3.5" fill="#d62728"/>
<polyline points="90.0,404.7 142.7,391.6 195.5,383.4 248.2,374.1 300.9,367.9 353.6,365.1 406.4,359.3 459.1,350.4 511.8,349.9 564.5,342.0 617.3,335.6 670.0,330.2" fill="none" stroke="#7f7f7f" stroke-width="2.5"/>
<circle cx="90.0" cy="404.7" r="3.5" fill="#7f7f7f"/>
<circle cx="142.7" cy="391.6" r="3.5" fill="#7f7f7f"/>
<circle cx="195.5" cy="383.4" r="3.5" fill="#7f7f7f"/>
<circle cx="248.2" cy="374.1" r="3.5" fill="#7f7f7f"/>
<circle cx="300.9" cy="367.9" r="3.5" fill="#7f7f7f"/>
<circle cx="353.6" cy="365.1" r="3.5" fill="#7f7f7f"/>
<circle cx="406.4" cy="359.3" r="3.5" fill="#7f7f7f"/>
<circle cx="459.1" cy="350.4" r="3.5" fill="#7f7f7f"/>
<circle cx="511.8" cy="349.9" r="3.5" fill="#7f7f7f"/>
<circle cx="564.5" cy="342.0" r="3.5" fill="#7f7f7f"/>
<circle cx="617.3" cy="335.6" r="3.5" fill="#7f7f7f"/>
<circle cx="670.0" cy="330.2" r="3.5" fill="#7f7f7f"/>
<polyline points="90.0,394.1 142.7,393.2 195.5,394.1 248.2,386.3 300.9,386.3 353.6,370.7 406.4,344.1 459.1,310.2 511.8,277.0 564.5,249.7 617.3,205.9 670.0,171.7" fill="none" stroke="#1f77b4" stroke-width="2.5"/>
<circle cx="90.0" cy="394.1" r="3.5" fill="#1f77b4"/>
<circle cx="142.7" cy="393.2" r="3.5" fill="#1f77b4"/>
<circle cx="195.5" cy="394.1" r="3.5" fill="#1f77b4"/>
<circle cx="248.2" cy="386.3" r="3.5" fill="#1f77b4"/>
<circle cx="300.9" cy="386.3" r="3.5" fill="#1f77b4"/>
<circle cx="353.6" cy="370.7" r="3.5" fill="#1f77b4"/>
<circle cx="406.4" cy="344.1" r="3.5" fill="#1f77b4"/>
<circle cx="459.1" cy="310.2" r="3.5" fill="#1f77b4"/>
<circle cx="511.8" cy="277.0" r="3.5" fill="#1f77b4"/>
<circle cx="564.5" cy="249.7" r="3.5" fill="#1f77b4"/>
<circle cx="617.3" cy="205.9" r="3.5" fill="#1f77b4"/>
<circle cx="670.0" cy="171.7" r="3.5" fill="#1f77b4"/>
<polyline points="90.0,396.6 142.7,396.6 195.5,396.6 248.2,395.6 300.9,390.6 353.6,388.0 406.4,360.1 459.1,327.2 511.8,289.8 564.5,259.3 617.3,203.1 670.0,161.8" fill="none" stroke="#2ca02c" stroke-width="2.5"/>
<circle cx="90.0" cy="396.6" r="3.5" fill="#2ca02c"/>
<circle cx="142.7" cy="396.6" r="3.5" fill="#2ca02c"/>
<circle cx="195.5" cy="396.6" r="3.5" fill="#2ca02c"/>
<circle cx="248.2" cy="395.6" r="3.5" fill="#2ca02c"/>
<circle cx="300.9" cy="390.6" r="3.5" fill="#2ca02c"/>
<circle cx="353.6" cy="388.0" r="3.5" fill="#2ca02c"/>
<circle cx="406.4" cy="360.1" r="3.5" fill="#2ca02c"/>
<circle cx="459.1" cy="327.2" r="3.5" fill="#2ca02c"/>
<circle cx="511.8" cy="289.8" r="3.5" fill="#2ca02c"/>
<circle cx="564.5" cy="259.3" r="3.5" fill="#2ca02c"/>
<circle cx="617.3" cy="203.1" r="3.5" fill="#2ca02c"/>
<circle cx="670.0" cy="161.8" r="3.5" fill="#2ca02c"/>
<polyline points="90.0,399.2 142.7,397.7 195.5,399.2 248.2,388.6 300.9,363.3 353.6,338.1 406.4,298.8 459.1,252.6 511.8,225.6 564.5,195.2 617.3,153.8 670.0,123.8" fill="none" stroke="#9467bd" stroke-width="2.5"/>
<circle cx="90.0" cy="399.2" r="3.5" fill="#9467bd"/>
<circle cx="142.7" cy="397.7" r="3.5" fill="#9467bd"/>
<circle cx="195.5" cy="399.2" r="3.5" fill="#9467bd"/>
<circle cx="248.2" cy="388.6" r="3.5" fill="#9467bd"/>
<circle cx="300.9" cy="363.3" r="3.5" fill="#9467bd"/>
<circle cx="353.6" cy="338.1" r="3.5" fill="#9467bd"/>
<circle cx="406.4" cy="298.8" r="3.5" fill="#9467bd"/>
<circle cx="459.1" cy="252.6" r="3.5" fill="#9467bd"/>
<circle cx="511.8" cy="225.6" r="3.5" fill="#9467bd"/>
<circle cx="564.5" cy="195.2" r="3.5" fill="#9467bd"/>
<circle cx="617.3" cy="153.8" r="3.5" fill="#9467bd"/>
<circle cx="670.0" cy="123.8" r="3.5" fill="#9467bd"/>
<rect x="694" y="56" width="16" height="4" fill="#d62728"/>
<text x="718" y="62" font-size="13">Plain TCP (RTO-only, this stack)</text>
<rect x="694" y="80" width="16" height="4" fill="#7f7f7f"/>
<text x="718" y="86" font-size="13">Idealised TCP (SACK fast-recovery)</text>
<rect x="694" y="104" width="16" height="4" fill="#1f77b4"/>
<text x="718" y="110" font-size="13">FEC k=8,r=2 (25% ovh)</text>
<rect x="694" y="128" width="16" height="4" fill="#2ca02c"/>
<text x="718" y="134" font-size="13">FEC k=16,r=3 (18.75% ovh)</text>
<rect x="694" y="152" width="16" height="4" fill="#9467bd"/>
<text x="718" y="158" font-size="13">FEC k=16,r=2 (12.5% ovh)</text>
</svg>